<?xml version="1.0" encoding="UTF-8"?>
<svg width="210" height="297" version="1.1" viewBox="0 0 210 297" xmlns="http://www.w3.org/2000/svg">
 <title>Pubmark Demo</title>
 <rect width="210" height="297" fill="#86b918"/>
 <g stroke-linecap="round" stroke-linejoin="round" stroke-width="20">
  <path d="m155 100v100" stroke="#f2f2f2" stroke-opacity=".5"/>
  <path d="m55 200v-100l50 50 50-50-50-50-25 25 25 25" fill="none" stroke="#f2f2f2"/>
  <path d="m45 256.45h7.2218c4.7026 0 7.5157-.46186 10.035-1.7215 4.7866-2.3513 7.6-7.4738 7.6-13.73 0-5.9202-2.4353-10.749-6.76-13.352-2.4353-1.4696-6.1302-2.2253-11-2.2253h-7.0959zm5.7523-5.5v-20.028h1.1337c3.6949 0 5.6263.3359 7.4318 1.2596 2.9391 1.5115 4.7446 4.8286 4.7446 8.8174 0 3.7369-1.7215 7.0539-4.4926 8.5654-1.7215.92372-4.1148 1.3856-7.5577 1.3856zm23.891 5.5h16.669v-5.5h-10.917v-7.2218h10.455v-5.5h-10.455v-7.3058h10.917v-5.5h-16.669zm21.833 0h5.7523v-23.261l8.1036 23.261h4.7026l8.1036-23.261v23.261h5.7523v-31.029h-7.8936l-8.2715 23.513-8.3555-23.513h-7.8936zm52.568-31.575c-9.2372 0-16.375 7.0119-16.375 16.081 0 8.9853 7.2218 16.039 16.333 16.039 9.0273 0 16-7.0119 16-16.039 0-8.9433-7.0959-16.081-15.955-16.081zm-.084 5.5423c5.7523 0 10.245 4.6186 10.245 10.581 0 6-4.3667 10.455-10.245 10.455-5.8782 0-10.497-4.6186-10.497-10.497 0-6 4.5346-10.539 10.497-10.539z" fill="#f2f2f2" fill-opacity=".5" stroke-opacity=".5"/>
 </g>
</svg>
